<svg width="44" height="44" viewBox="0 0 44 44" fill="none" xmlns="http://www.w3.org/2000/svg">
<path d="M0 19.2C0 12.4794 0 9.11905 1.30792 6.55211C2.4584 4.29417 4.29417 2.4584 6.55211 1.30792C9.11905 0 12.4794 0 19.2 0H24.8C31.5206 0 34.8809 0 37.4479 1.30792C39.7058 2.4584 41.5416 4.29417 42.6921 6.55211C44 9.11905 44 12.4794 44 19.2V24.8C44 31.5206 44 34.8809 42.6921 37.4479C41.5416 39.7058 39.7058 41.5416 37.4479 42.6921C34.8809 44 31.5206 44 24.8 44H19.2C12.4794 44 9.11905 44 6.55211 42.6921C4.29417 41.5416 2.4584 39.7058 1.30792 37.4479C0 34.8809 0 31.5206 0 24.8V19.2Z" fill="#04D250" fill-opacity="0.15"/>
<path d="M0.165 19.2C0.165 15.837 0.165128 13.3246 0.327942 11.3319C0.490599 9.34104 0.814804 7.88336 1.45494 6.62702C2.5896 4.40012 4.40012 2.5896 6.62702 1.45494C7.88336 0.814804 9.34104 0.490599 11.3319 0.327942C13.3246 0.165128 15.837 0.165 19.2 0.165H24.8C28.163 0.165 30.6754 0.165128 32.6681 0.327942C34.659 0.490599 36.1166 0.814804 37.373 1.45494C39.5999 2.5896 41.4104 4.40012 42.5451 6.62702C43.1852 7.88336 43.5094 9.34104 43.6721 11.3319C43.8349 13.3246 43.835 15.837 43.835 19.2V24.8C43.835 28.163 43.8349 30.6754 43.6721 32.6681C43.5094 34.659 43.1852 36.1166 42.5451 37.373C41.4104 39.5999 39.5999 41.4104 37.373 42.5451C36.1166 43.1852 34.659 43.5094 32.6681 43.6721C30.6754 43.8349 28.163 43.835 24.8 43.835H19.2C15.837 43.835 13.3246 43.8349 11.3319 43.6721C9.34104 43.5094 7.88336 43.1852 6.62702 42.5451C4.40012 41.4104 2.5896 39.5999 1.45494 37.373C0.814804 36.1166 0.490599 34.659 0.327942 32.6681C0.165128 30.6754 0.165 28.163 0.165 24.8V19.2Z" stroke="#04D250" stroke-opacity="0.15" stroke-width="0.33"/>
<path d="M12.6055 29.168C11.9089 29.168 11.3587 28.9694 10.9551 28.5723C10.5579 28.1686 10.3594 27.6152 10.3594 26.9121V15.2031C10.3594 14.5 10.5579 13.9499 10.9551 13.5527C11.3587 13.1556 11.9089 12.957 12.6055 12.957H31.3848C32.0879 12.957 32.638 13.1556 33.0352 13.5527C33.4388 13.9499 33.6406 14.5 33.6406 15.2031V26.9121C33.6406 27.6152 33.4388 28.1686 33.0352 28.5723C32.638 28.9694 32.0879 29.168 31.3848 29.168H12.6055ZM12.3516 24.8613H31.6387C31.9251 24.8613 32.0684 24.7214 32.0684 24.4414V15.2324C32.0684 15.0111 32.0033 14.8385 31.873 14.7148C31.7493 14.5911 31.5801 14.5293 31.3652 14.5293H12.6348C12.4199 14.5293 12.2474 14.5911 12.1172 14.7148C11.9935 14.8385 11.9316 15.0111 11.9316 15.2324V24.4414C11.9316 24.7214 12.0716 24.8613 12.3516 24.8613ZM18.9141 31.4922V29.041H25.0859V31.4922H18.9141ZM18.8555 32.6348C18.6406 32.6348 18.4551 32.5566 18.2988 32.4004C18.1426 32.2507 18.0645 32.0651 18.0645 31.8438C18.0645 31.6224 18.1426 31.4336 18.2988 31.2773C18.4551 31.1276 18.6406 31.0527 18.8555 31.0527H25.1445C25.3594 31.0527 25.5417 31.1276 25.6914 31.2773C25.8477 31.4336 25.9258 31.6224 25.9258 31.8438C25.9258 32.0651 25.8477 32.2507 25.6914 32.4004C25.5417 32.5566 25.3594 32.6348 25.1445 32.6348H18.8555Z" fill="#04D250"/>
</svg>
